<?xml version="1.0" encoding="utf-8"?>
<!-- Generator: Adobe Illustrator 16.0.0, SVG Export Plug-In . SVG Version: 6.00 Build 0)  -->
<!DOCTYPE svg PUBLIC "-//W3C//DTD SVG 1.1//EN" "http://www.w3.org/Graphics/SVG/1.1/DTD/svg11.dtd">
<svg version="1.1" id="Layer_1" xmlns="http://www.w3.org/2000/svg" xmlns:xlink="http://www.w3.org/1999/xlink" x="0px" y="0px"
	 width="56px" height="56px" viewBox="0 0 56 56" enable-background="new 0 0 56 56" xml:space="preserve">
<g>
	<path fill="#FFFFFF" d="M15.066,36.709v0.172C15.184,36.845,15.184,36.785,15.066,36.709z"/>
	<path fill="#FFFFFF" d="M14.208,44.446c0-0.304,0-0.62,0-0.948c0-0.32,0.037-0.637,0.113-0.942v-0.117
		c-0.038-0.075-0.038-0.172,0-0.285s0.038-0.208,0-0.288c0-0.075-0.027-0.133-0.085-0.172c-0.057-0.037-0.065-0.092-0.028-0.172
		l0.172-0.343c0.075-0.192,0.075-0.38,0-0.573c-0.113-0.191-0.135-0.381-0.059-0.573c0.038-0.038,0.059-0.075,0.059-0.112
		c0-0.038,0.019-0.076,0.059-0.117l0.173-0.746c0-0.187,0.036-0.438,0.112-0.744v-0.055c-0.038-0.041-0.059-0.095-0.059-0.172
		l0.173-0.519c0.077-0.149,0.094-0.305,0.058-0.455c-0.077-0.193-0.018-0.327,0.171-0.403c0-0.267,0.036-0.46,0.117-0.572
		c0.075-0.075,0.15-0.192,0.227-0.343c0.079-0.306,0.164-0.611,0.261-0.917c0.092-0.307,0.14-0.632,0.14-0.975
		c0-0.079,0.039-0.23,0.118-0.461c0.036-0.112,0.074-0.23,0.112-0.343c0.037-0.112,0.059-0.23,0.059-0.343
		c0.075-0.305,0.15-0.573,0.229-0.804c0.039-0.037,0.055-0.112,0.055-0.231c0-0.187,0.021-0.359,0.06-0.514
		c0.037-0.152,0.074-0.325,0.112-0.514c0.08-0.23,0.155-0.536,0.229-0.917c0.075-0.192,0.123-0.385,0.146-0.573
		c0.017-0.191,0.064-0.385,0.144-0.573c0.075-0.306,0.15-0.621,0.228-0.948c0.078-0.321,0.153-0.658,0.229-1.002
		c0.036-0.037,0.06-0.075,0.06-0.113c0.073-0.191,0.143-0.391,0.197-0.604c0.058-0.209,0.126-0.406,0.203-0.601l0.056-0.059
		c0-0.036,0.068-0.198,0.201-0.487c0.134-0.284,0.199-0.467,0.199-0.541c0.08-0.192,0.182-0.471,0.316-0.831
		c0.133-0.363,0.202-0.583,0.202-0.659v-0.059c0-0.036,0.006-0.059,0.028-0.059c0.02,0,0.025-0.017,0.025-0.054
		c0.039,0,0.06-0.021,0.06-0.06v-0.059l0.171-0.401v-0.112c0-0.038,0.021-0.075,0.059-0.113l0.057-0.059
		c0.078-0.192,0.164-0.381,0.261-0.574c0.091-0.191,0.179-0.401,0.257-0.632c0-0.112,0.055-0.229,0.172-0.343l0.515-1.087
		c0.114-0.268,0.24-0.516,0.373-0.746c0.134-0.23,0.275-0.476,0.43-0.744l0.172-0.343c0-0.08,0.019-0.135,0.058-0.173
		c0.188-0.267,0.322-0.534,0.4-0.802s0.19-0.557,0.345-0.863c0.15-0.267,0.295-0.524,0.43-0.771c0.133-0.246,0.277-0.525,0.429-0.83
		l0.115-0.117c0.038-0.188,0.114-0.359,0.228-0.516c0.118-0.149,0.212-0.305,0.29-0.456l0.17-0.229
		c0.076-0.193,0.172-0.364,0.284-0.515c0.118-0.154,0.23-0.307,0.347-0.461c0.265-0.305,0.517-0.669,0.746-1.088
		c0.075-0.076,0.188-0.23,0.344-0.46c0.229-0.344,0.418-0.621,0.573-0.831c0.149-0.208,0.306-0.417,0.456-0.631
		c0.154-0.209,0.288-0.371,0.4-0.484c0.038-0.079,0.098-0.154,0.172-0.23c0-0.075,0.021-0.133,0.06-0.171
		c0.191-0.154,0.343-0.299,0.456-0.432c0.118-0.132,0.25-0.275,0.402-0.431c0.153-0.148,0.305-0.284,0.459-0.401
		c0.15-0.112,0.325-0.226,0.516-0.343c0.294-0.181,0.602-0.344,0.908-0.501C29.428,5.536,28.721,5.5,28,5.5
		C15.574,5.5,5.5,15.574,5.5,28c0,7.229,3.41,13.652,8.708,17.772V44.446z"/>
	<path fill="#FFFFFF" d="M30.658,21.408c0.074-0.075,0.132-0.097,0.171-0.06h0.113c0.037,0,0.058-0.016,0.058-0.055
		c0.113-0.117,0.236-0.23,0.37-0.347c0.135-0.113,0.24-0.227,0.316-0.344c0.076-0.074,0.146-0.149,0.202-0.229
		c0.056-0.076,0.124-0.15,0.2-0.227c0.724-0.611,1.354-1.302,1.891-2.063l0.573-0.69c0.23-0.227,0.43-0.456,0.601-0.686
		c0.171-0.23,0.354-0.478,0.547-0.746c0.073-0.153,0.148-0.304,0.23-0.46c0.074-0.149,0.187-0.267,0.342-0.343l0.056-0.059
		c0.04-0.113,0.094-0.219,0.175-0.312c0.076-0.096,0.149-0.181,0.226-0.259l0.346-0.572c0.115-0.191,0.221-0.401,0.314-0.632
		c0.095-0.23,0.202-0.438,0.314-0.632c0.498-0.916,0.879-1.812,1.147-2.691l0.343-1.434c0.014-0.021,0.019-0.048,0.029-0.067
		c-0.328-0.189-0.657-0.371-0.997-0.542c-0.04,0.029-0.084,0.063-0.12,0.094c-0.23,0.191-0.439,0.393-0.632,0.601
		c-0.188,0.21-0.381,0.45-0.573,0.718l-0.97,1.317c-0.27,0.382-0.481,0.765-0.633,1.147c-0.075,0.15-0.155,0.268-0.23,0.343
		c-0.15,0.193-0.284,0.402-0.402,0.632c-0.112,0.226-0.247,0.456-0.401,0.687c-0.149,0.153-0.248,0.306-0.284,0.46
		c-0.154,0.306-0.306,0.58-0.46,0.831c-0.151,0.248-0.307,0.525-0.455,0.83c-0.157,0.229-0.211,0.419-0.172,0.574
		c0,0.075-0.022,0.162-0.06,0.257c-0.038,0.097-0.076,0.183-0.113,0.258l-0.401,0.916c-0.037,0.23-0.106,0.429-0.202,0.601
		c-0.095,0.173-0.221,0.354-0.371,0.546c-0.117,0.075-0.209,0.23-0.289,0.46c-0.037,0.188-0.149,0.381-0.343,0.573l-0.229,0.344
		c-0.307,0.535-0.456,1.105-0.456,1.72c0.036-0.08,0.073-0.155,0.112-0.23C30.577,21.562,30.615,21.483,30.658,21.408z"/>
	<path fill="#FFFFFF" d="M33.867,30.291c0.112-0.23,0.225-0.46,0.344-0.688c0.227-0.496,0.321-0.957,0.284-1.375
		c0-0.154-0.058-0.326-0.172-0.515c-0.076-0.08-0.136-0.154-0.172-0.23c-0.112-0.117-0.221-0.192-0.316-0.229
		c-0.097-0.038-0.257,0-0.486,0.112c-0.076,0.04-0.189,0.135-0.344,0.289c-0.076,0.038-0.151,0.085-0.23,0.144
		c-0.075,0.054-0.151,0.104-0.227,0.141c-0.229,0.154-0.384,0.268-0.459,0.346c-0.155,0.19-0.307,0.361-0.461,0.516
		c-0.149,0.151-0.284,0.323-0.397,0.516c-0.193,0.192-0.365,0.381-0.519,0.572c-0.151,0.193-0.284,0.402-0.401,0.633l-0.227,0.343
		l-0.402,0.514l-0.518,0.746c-0.077,0.116-0.14,0.249-0.199,0.401c-0.059,0.154-0.123,0.269-0.198,0.343
		c-0.081,0.155-0.155,0.289-0.23,0.402c-0.077,0.112-0.156,0.229-0.23,0.343c-0.076,0.193-0.171,0.375-0.284,0.546
		c-0.117,0.172-0.215,0.354-0.289,0.542c-0.076,0.268-0.182,0.527-0.315,0.776c-0.136,0.247-0.236,0.487-0.316,0.718
		c0.192-0.041,0.48-0.134,0.863-0.289c0.342-0.192,0.686-0.364,1.027-0.515c0.348-0.155,0.707-0.288,1.093-0.401
		c0.15-0.038,0.285-0.113,0.398-0.229c0.078-0.076,0.153-0.146,0.229-0.199c0.078-0.06,0.172-0.106,0.288-0.145
		c0.113-0.113,0.172-0.192,0.172-0.23c0.113-0.268,0.307-0.456,0.573-0.573c0.305-0.267,0.583-0.562,0.831-0.889
		c0.247-0.322,0.488-0.638,0.718-0.944l0.113-0.113v-0.289c-0.076-0.148-0.059-0.284,0.059-0.4
		C33.615,30.747,33.75,30.521,33.867,30.291z"/>
	<path fill="#FFFFFF" d="M41.375,9.908c-0.039,0.14-0.081,0.283-0.118,0.439l-0.515,1.432l-0.516,1.088
		c-0.076,0.193-0.155,0.364-0.229,0.519c-0.075,0.151-0.153,0.323-0.229,0.516c-0.039,0.113-0.086,0.229-0.145,0.342
		c-0.055,0.114-0.124,0.21-0.199,0.288c-0.193,0.19-0.344,0.393-0.459,0.603c-0.114,0.209-0.249,0.428-0.398,0.658
		c0,0.076-0.041,0.151-0.117,0.229c-0.112,0.189-0.222,0.361-0.316,0.516c-0.092,0.15-0.18,0.322-0.258,0.515
		c-0.075,0.116-0.149,0.23-0.229,0.343c-0.077,0.117-0.189,0.213-0.345,0.289c-0.075,0.037-0.124,0.086-0.14,0.143
		c-0.021,0.057-0.069,0.126-0.145,0.2c-0.117,0.151-0.221,0.307-0.315,0.46c-0.097,0.151-0.241,0.285-0.43,0.398
		c-0.116,0.192-0.268,0.385-0.46,0.573c-0.188,0.192-0.343,0.385-0.456,0.572c-0.155,0.23-0.347,0.424-0.573,0.573
		c-0.193,0.117-0.346,0.307-0.46,0.573c-0.037,0.117-0.104,0.222-0.198,0.316c-0.098,0.097-0.183,0.183-0.258,0.258
		c-0.117,0.075-0.221,0.183-0.316,0.314c-0.097,0.136-0.202,0.259-0.315,0.376c-0.039,0.076-0.156,0.209-0.343,0.396
		c-0.23,0.118-0.424,0.253-0.574,0.402c-0.229,0.229-0.423,0.364-0.573,0.401c-0.076,0.038-0.154,0.098-0.229,0.172
		c-0.113,0.117-0.221,0.24-0.317,0.374c-0.096,0.136-0.198,0.259-0.314,0.371c-0.151,0.155-0.269,0.251-0.344,0.288
		c-0.112,0.076-0.209,0.21-0.284,0.402c0,0.188-0.021,0.322-0.059,0.399c-0.075,0.115-0.123,0.238-0.146,0.372
		c-0.017,0.135-0.064,0.257-0.14,0.374l-0.52,1.03l-0.229,0.343c-0.077,0.117-0.15,0.23-0.226,0.343
		c-0.081,0.118-0.118,0.252-0.118,0.402l-0.054,0.229c-0.155,0.156-0.253,0.316-0.289,0.487c-0.038,0.172-0.076,0.354-0.112,0.547
		c0.112-0.079,0.188-0.145,0.229-0.203c0.037-0.058,0.092-0.122,0.173-0.198l1.146-1.377c0.264-0.305,0.543-0.573,0.831-0.804
		c0.284-0.228,0.578-0.455,0.885-0.687c0.192-0.113,0.364-0.23,0.519-0.343c0.15-0.117,0.307-0.229,0.456-0.344
		c0.23-0.191,0.45-0.363,0.66-0.519c0.209-0.149,0.429-0.284,0.659-0.4c0.153-0.076,0.289-0.114,0.401-0.114l0.401-0.171
		c0.268-0.113,0.498-0.154,0.687-0.113h0.401c0.118,0.038,0.231,0.047,0.344,0.027c0.116-0.021,0.229,0.011,0.347,0.086
		c0.076,0.038,0.172,0.065,0.284,0.085c0.113,0.022,0.208,0.067,0.287,0.145c0.228,0.113,0.42,0.248,0.572,0.402l0.861,0.799
		c0.149,0.156,0.245,0.288,0.284,0.401c0.306,0.729,0.535,1.436,0.691,2.122c0.074,0.229,0.112,0.467,0.112,0.718
		c0,0.247,0,0.487,0,0.714c0,0.079-0.019,0.144-0.06,0.202c-0.037,0.059-0.053,0.124-0.053,0.198
		c-0.119,0.269-0.156,0.499-0.119,0.69c0,0.039-0.006,0.065-0.026,0.087c-0.021,0.017-0.026,0.049-0.026,0.085
		c-0.04,0.076-0.081,0.141-0.118,0.199c-0.038,0.059-0.077,0.124-0.113,0.202c-0.229,0.649-0.611,1.239-1.146,1.774
		c-0.305,0.382-0.535,0.745-0.687,1.089c-0.079,0.079-0.128,0.144-0.143,0.202c-0.023,0.057-0.07,0.104-0.146,0.145
		c-0.112,0.151-0.22,0.296-0.316,0.429c-0.096,0.135-0.235,0.236-0.428,0.316l-0.113,0.172c-0.229,0.306-0.44,0.553-0.632,0.744
		l-0.231,0.343c-0.074,0.112-0.268,0.269-0.573,0.457c-0.306,0.192-0.626,0.385-0.974,0.573c-0.343,0.193-0.666,0.365-0.972,0.519
		c-0.305,0.15-0.498,0.247-0.573,0.284c-0.229,0.156-0.471,0.289-0.717,0.401c-0.247,0.113-0.508,0.23-0.771,0.344
		c-0.194,0.076-0.365,0.155-0.521,0.23c-0.15,0.075-0.321,0.154-0.515,0.23c-0.037,0-0.064,0.01-0.084,0.026
		c-0.023,0.022-0.05,0.028-0.087,0.028c-0.075,0.041-0.113,0.117-0.113,0.229c0.113,0.117,0.22,0.241,0.312,0.374
		c0.096,0.135,0.202,0.275,0.314,0.429c0.077,0.076,0.097,0.172,0.06,0.286c-0.038,0.154-0.021,0.268,0.059,0.346l0.285,0.343
		c0.113,0.076,0.171,0.19,0.171,0.344c0,0.193,0.118,0.402,0.344,0.632c0.191,0.188,0.306,0.361,0.347,0.515
		c0.076,0.112,0.124,0.239,0.14,0.371c0.021,0.134,0.068,0.261,0.146,0.374c0.112,0.269,0.207,0.514,0.285,0.745l0.174,0.401
		c0,0.075,0.075,0.113,0.227,0.113c0.117,0,0.214,0.037,0.289,0.117c0.075,0.15,0.15,0.284,0.229,0.401
		c0.075,0.113,0.15,0.226,0.227,0.344c0.079,0.149,0.154,0.284,0.23,0.4c0.075,0.114,0.172,0.227,0.289,0.343
		c0.112,0.113,0.197,0.237,0.257,0.371c0.057,0.135,0.123,0.279,0.199,0.432s0.153,0.249,0.229,0.287
		c0.229,0.192,0.381,0.478,0.46,0.856c0,0.081,0.006,0.155,0.028,0.23c0.019,0.077,0.025,0.156,0.025,0.229
		c0,0.003,0.001,0.005,0.001,0.008C43.841,46.654,50.5,38.104,50.5,28C50.5,20.584,46.91,14.004,41.375,9.908z"/>
	<path fill="#FFFFFF" d="M30.942,49.719c-0.113-0.267-0.284-0.477-0.515-0.632c-0.076-0.036-0.156-0.149-0.23-0.343
		c0-0.112-0.021-0.208-0.06-0.287c-0.037-0.076-0.095-0.152-0.172-0.228c-0.188-0.117-0.284-0.288-0.284-0.519
		c0-0.113-0.037-0.209-0.117-0.285c-0.15-0.267-0.284-0.534-0.4-0.803c-0.113-0.268-0.226-0.536-0.344-0.803
		c-0.077-0.227-0.15-0.398-0.227-0.516c-0.116-0.112-0.175-0.229-0.175-0.343c-0.039-0.153-0.113-0.305-0.226-0.46
		c-0.117-0.114-0.172-0.264-0.172-0.457c0-0.267-0.117-0.555-0.347-0.861c-0.152-0.264-0.296-0.524-0.43-0.772
		c-0.135-0.247-0.296-0.504-0.487-0.772l-0.402-0.519c0-0.037-0.037-0.054-0.112-0.054l-0.06,0.054
		c-0.188,0.573-0.306,1.168-0.343,1.779c0,0.151,0.021,0.268,0.059,0.342c0.037,0.155,0.058,0.343,0.058,0.573
		c-0.116,0.573-0.134,1.223-0.058,1.95v0.515c-0.076,0.113-0.116,0.327-0.116,0.632v0.858c0,0.155-0.039,0.268-0.113,0.343
		c-0.152,0.307-0.307,0.651-0.46,1.033c0,0.076-0.007,0.124-0.027,0.145c-0.019,0.017-0.027,0.046-0.027,0.086l-0.517,0.573
		l-0.261,0.259C25.561,50.396,26.767,50.5,28,50.5c1.112,0,2.201-0.084,3.27-0.241L30.942,49.719z"/>
</g>
</svg>
